<!-- Copyright (c) 2022. Yuki Tatsunami -->
<!-- Licensed under the Apache License, Version 2.0 (the "License"); -->

<svg xmlns="http://www.w3.org/2000/svg" xmlns:xlink="http://www.w3.org/1999/xlink" width="224.777" height="60.836" viewBox="0 0 224.777 60.836">
  <defs>
    <linearGradient id="linear-gradient" y1="0.5" x2="1" y2="0.5" gradientUnits="objectBoundingBox">
      <stop offset="0" stop-color="#18c4aa"/>
      <stop offset="1" stop-color="#2a7adb"/>
    </linearGradient>
  </defs>
  <g id="グループ_1578" data-name="グループ 1578" transform="translate(-5278.022 -2486.244)">
    <g id="Deep" transform="translate(5348.834 2503.19)" style="isolation: isolate">
      <g id="グループ_1575" data-name="グループ 1575" transform="translate(0 0)" style="isolation: isolate">
        <path id="パス_4355" data-name="パス 4355" d="M5474.009,2554.831l-3.526.007a1.119,1.119,0,0,1-1.047-.716l-1.822-4.715a1.121,1.121,0,0,0-1.047-.716l-9.277.019a1.12,1.12,0,0,0-1.051.74l-1.691,4.683a1.12,1.12,0,0,1-1.051.739l-3.381.007a1.12,1.12,0,0,1-1.047-1.524l9.631-24.873a1.12,1.12,0,0,1,1.042-.716l4.261-.008a1.12,1.12,0,0,1,1.041.7l10,24.833A1.12,1.12,0,0,1,5474.009,2554.831Zm-9-12.211-2.125-5.685a1.12,1.12,0,0,0-2.1.011l-2.06,5.693a1.12,1.12,0,0,0,1.055,1.5l4.184-.008A1.12,1.12,0,0,0,5465.007,2542.62Z" transform="translate(-5448.993 -2527.51)" fill="#444"/>
        <path id="パス_4356" data-name="パス 4356" d="M5536.939,2564.65l-2.97.005a1.112,1.112,0,0,1-1.114-1.11l-.019-8.9a15.487,15.487,0,0,0-.34-4.11,2.876,2.876,0,0,0-1.084-1.448,3.093,3.093,0,0,0-1.8-.515,4.171,4.171,0,0,0-2.419.744,3.724,3.724,0,0,0-1.465,1.962,16.9,16.9,0,0,0-.388,4.509l.015,7.777a1.113,1.113,0,0,1-1.11,1.115l-2.97.006a1.113,1.113,0,0,1-1.115-1.11l-.035-17.4a1.112,1.112,0,0,1,1.11-1.115l2.6,0a1.112,1.112,0,0,1,1.115,1.11l0,1.771a8.05,8.05,0,0,1,9.605-2.727,5.288,5.288,0,0,1,2.157,1.577,5.723,5.723,0,0,1,1.02,2.179,16.253,16.253,0,0,1,.294,3.493l.022,11.084A1.113,1.113,0,0,1,5536.939,2564.65Z" transform="translate(-5490.664 -2537.371)" fill="#444"/>
        <path id="パス_4357" data-name="パス 4357" d="M5572.429,2545.558l3.1-.006a1.118,1.118,0,0,1,1.063.76l3.384,9.979a1.119,1.119,0,0,0,2.124-.012l3.259-9.978a1.119,1.119,0,0,1,1.062-.772l2.965-.006a1.119,1.119,0,0,1,1.054,1.5l-6.343,17.4-1.231,3.42a13.958,13.958,0,0,1-1.3,2.627,5.673,5.673,0,0,1-1.42,1.472,6.236,6.236,0,0,1-1.977.883,10.291,10.291,0,0,1-2.652.32,13.985,13.985,0,0,1-2.119-.158,1.108,1.108,0,0,1-.915-.978l-.208-1.8a1.126,1.126,0,0,1,1.235-1.238q.417.036.8.035a3.263,3.263,0,0,0,2.679-1.069,7.123,7.123,0,0,0,1.208-2.324,1.15,1.15,0,0,0-.024-.755l-6.787-17.783A1.119,1.119,0,0,1,5572.429,2545.558Z" transform="translate(-5520.65 -2537.918)" fill="#444"/>
        <path id="パス_4358" data-name="パス 4358" d="M5630.316,2553.386l-.04-20.268a1.121,1.121,0,0,0-1.123-1.118l-5.8.011a1.122,1.122,0,0,1-1.123-1.118l0-2.343a1.121,1.121,0,0,1,1.119-1.123l19.288-.038a1.121,1.121,0,0,1,1.123,1.119l0,2.342a1.12,1.12,0,0,1-1.118,1.123l-5.779.012a1.121,1.121,0,0,0-1.118,1.123l.041,20.268a1.121,1.121,0,0,1-1.118,1.123l-3.229.006A1.12,1.12,0,0,1,5630.316,2553.386Z" transform="translate(-5550.478 -2527.293)" fill="#444"/>
        <path id="パス_4359" data-name="パス 4359" d="M5686.079,2558.265l2.858.475a1.125,1.125,0,0,1,.818,1.615,8.006,8.006,0,0,1-2.553,2.958,9.247,9.247,0,0,1-5.385,1.5q-5.118.01-7.583-3.329a11.245,11.245,0,0,1-1.954-6.761q-.01-4.877,2.534-7.645a8.4,8.4,0,0,1,6.445-2.777,8.719,8.719,0,0,1,6.919,2.879q2.291,2.61,2.433,7.731a1.113,1.113,0,0,1-1.116,1.127l-10.647.02a1.111,1.111,0,0,0-1.1,1.3,4.592,4.592,0,0,0,1.123,2.292,3.93,3.93,0,0,0,3,1.279,3.166,3.166,0,0,0,2.05-.671,3.436,3.436,0,0,0,.965-1.337A1.114,1.114,0,0,1,5686.079,2558.265Zm-1.865-5.4a1.108,1.108,0,0,0,1.1-1.3,4.237,4.237,0,0,0-1.032-2.132,3.751,3.751,0,0,0-5.508.076,4.212,4.212,0,0,0-.982,2.1,1.1,1.1,0,0,0,1.108,1.266Z" transform="translate(-5579.8 -2537.199)" fill="#444"/>
        <path id="パス_4360" data-name="パス 4360" d="M5740.949,2550.659l-2.816.514a1.121,1.121,0,0,1-1.246-.735,3.237,3.237,0,0,0-.937-1.388,3.544,3.544,0,0,0-2.377-.773,3.881,3.881,0,0,0-3.093,1.346q-1.151,1.343-1.146,4.483.007,3.495,1.184,4.934a3.856,3.856,0,0,0,3.154,1.434,3.5,3.5,0,0,0,2.419-.846,4.15,4.15,0,0,0,1.1-1.96,1.1,1.1,0,0,1,1.24-.762l2.857.48a1.13,1.13,0,0,1,.874,1.476,8.439,8.439,0,0,1-2.687,4.041,9.434,9.434,0,0,1-6.041,1.8,8.981,8.981,0,0,1-6.871-2.7,10.536,10.536,0,0,1-2.575-7.517q-.009-4.86,2.554-7.573a9.125,9.125,0,0,1,6.943-2.721,9.492,9.492,0,0,1,5.706,1.533,7.881,7.881,0,0,1,2.585,3.395A1.125,1.125,0,0,1,5740.949,2550.659Z" transform="translate(-5610.095 -2537.138)" fill="#444"/>
        <path id="パス_4361" data-name="パス 4361" d="M5782.655,2528.271l.013,6.338a1.109,1.109,0,0,0,1.761.891,7.267,7.267,0,0,1,4.244-1.333,7.637,7.637,0,0,1,3.236.66,5.27,5.27,0,0,1,2.176,1.7,6.174,6.174,0,0,1,1,2.289,20.6,20.6,0,0,1,.276,3.9l.021,10.4a1.114,1.114,0,0,1-1.112,1.116l-2.967.005a1.113,1.113,0,0,1-1.115-1.112l-.019-9.254a15.314,15.314,0,0,0-.3-3.917,2.583,2.583,0,0,0-1.047-1.319,3.365,3.365,0,0,0-1.877-.486,4.3,4.3,0,0,0-2.308.632,3.625,3.625,0,0,0-1.484,1.9,11.3,11.3,0,0,0-.465,3.743l.018,8.719a1.115,1.115,0,0,1-1.111,1.116l-2.965.006a1.114,1.114,0,0,1-1.116-1.111l-.05-24.866a1.114,1.114,0,0,1,1.111-1.116l2.966-.006A1.114,1.114,0,0,1,5782.655,2528.271Z" transform="translate(-5641.418 -2527.159)" fill="#444"/>
      </g>
    </g>
    <g id="グループ_1576" data-name="グループ 1576" transform="translate(5278.022 2486.244)">
      <path id="パス_4362" data-name="パス 4362" d="M5332.99,2505.742h-20.944a.875.875,0,0,1-.753-1.319l10.472-17.749a.875.875,0,0,1,1.506,0l10.472,17.749A.875.875,0,0,1,5332.99,2505.742Z" transform="translate(-5297.441 -2486.244)" fill="#444"/>
      <path id="パス_4363" data-name="パス 4363" d="M5299.907,2561.848H5278.9a.876.876,0,0,1-.755-1.321l10.5-17.8a.876.876,0,0,1,1.509,0l10.5,17.8A.876.876,0,0,1,5299.907,2561.848Z" transform="translate(-5278.022 -2519.079)" fill="#444"/>
      <path id="パス_4364" data-name="パス 4364" d="M5392.684,2559.689l-10.471-17.747a.874.874,0,0,1,.753-1.32h20.942a.875.875,0,0,1,.754,1.32l-10.471,17.747A.875.875,0,0,1,5392.684,2559.689Z" transform="translate(-5338.988 -2518.101)" fill="#444"/>
      <path id="パス_4365" data-name="パス 4365" d="M5326.88,2560.531l-10.967-18.586a.877.877,0,0,1,.755-1.322h21.593a.876.876,0,0,1,.877.877l-.024,18.5a.876.876,0,0,1-.869.875l-10.6.086A.876.876,0,0,1,5326.88,2560.531Z" transform="translate(-5300.147 -2518.101)" fill="url(#linear-gradient)"/>
      <path id="パス_4366" data-name="パス 4366" d="M5387.29,2572.736H5381.3a.876.876,0,0,1-.876-.879l.024-10.1a.877.877,0,0,1,1.632-.443l5.961,10.1A.877.877,0,0,1,5387.29,2572.736Z" transform="translate(-5338.014 -2529.967)" fill="#444"/>
      <path id="パス_4367" data-name="パス 4367" d="M5356.9,2611.42l-7.841-13.29a.876.876,0,0,1,.754-1.32h7.841a.875.875,0,0,1,.875.875v13.29A.875.875,0,0,1,5356.9,2611.42Z" transform="translate(-5319.567 -2551.016)" fill="#444"/>
      <path id="パス_4368" data-name="パス 4368" d="M5381.3,2596.81h7.839a.876.876,0,0,1,.755,1.322l-7.839,13.286a.876.876,0,0,1-1.631-.445v-13.286A.876.876,0,0,1,5381.3,2596.81Z" transform="translate(-5338.011 -2551.016)" fill="#444"/>
    </g>
  </g>
</svg>
